<?xml version="1.0" standalone="no"?>
<!DOCTYPE svg PUBLIC "-//W3C//DTD SVG 20010904//EN"
 "http://www.w3.org/TR/2001/REC-SVG-20010904/DTD/svg10.dtd">
<svg version="1.0" xmlns="http://www.w3.org/2000/svg"
 width="512.000000pt" height="512.000000pt" viewBox="0 0 512.000000 512.000000"
 preserveAspectRatio="xMidYMid meet">

<g transform="translate(0.000000,512.000000) scale(0.100000,-0.100000)"
fill="#000000" stroke="none">
<path d="M3803 4787 c-285 -74 -398 -108 -412 -122 -15 -15 -34 -85 -74 -270
l-53 -250 -497 -3 -496 -2 -6 37 c-51 310 -272 559 -572 645 -101 29 -303 32
-403 5 -87 -23 -232 -96 -302 -151 -181 -144 -289 -371 -290 -611 -1 -133 18
-215 76 -340 117 -248 337 -407 618 -446 50 -7 88 -17 88 -23 0 -6 63 -679
140 -1496 l139 -1485 26 -22 26 -23 1105 0 1105 0 24 25 c14 13 25 28 25 32 1
4 81 856 179 1893 120 1276 175 1893 169 1909 -19 51 -10 50 -515 51 -260 0
-473 3 -473 8 0 4 19 95 41 203 l42 196 346 88 c190 49 362 95 383 102 40 16
64 58 53 93 -10 32 -46 60 -74 59 -14 0 -203 -46 -418 -102z m-2403 -319 l0
-213 -150 150 c-112 112 -147 152 -139 162 32 37 205 112 262 113 l27 0 0
-212z m271 192 c67 -21 180 -79 186 -96 2 -5 -64 -77 -147 -159 l-150 -150 0
213 0 212 24 0 c13 0 52 -9 87 -20z m-526 -370 l150 -150 -218 0 c-179 0 -217
2 -217 14 0 63 100 286 128 286 4 0 75 -67 157 -150z m878 93 c35 -57 69 -146
80 -210 l7 -33 -218 0 -217 0 150 150 c82 83 153 150 157 150 3 0 22 -26 41
-57z m-743 -406 c0 -1 -67 -69 -148 -150 l-149 -149 -31 49 c-34 53 -76 157
-86 216 l-7 37 211 0 c115 0 210 -1 210 -3z m1918 -134 c-16 -76 -84 -394
-151 -708 l-123 -570 -75 -58 c-155 -120 -271 -175 -419 -198 -91 -14 -262 -6
-345 15 -84 22 -207 85 -298 151 -70 51 -76 59 -82 98 -3 23 -32 330 -65 682
-32 352 -62 659 -64 683 l-6 42 829 0 829 0 -30 -137z m1058 105 c-3 -18 -33
-332 -67 -698 -34 -366 -63 -667 -65 -668 -1 -2 -22 9 -46 26 -73 50 -179 99
-273 127 -72 22 -118 28 -230 32 -160 6 -272 -10 -391 -56 l-71 -28 8 36 c4
20 62 290 129 601 67 311 126 586 131 613 l11 47 434 0 435 0 -5 -32z m-2816
-279 c26 -267 29 -240 -27 -232 -79 10 -194 50 -256 89 l-59 37 158 158 c87
87 160 157 161 155 2 -2 13 -95 23 -207z m2268 -1075 c42 -9 103 -26 135 -40
53 -21 186 -104 244 -151 l21 -18 -93 -990 c-52 -545 -94 -993 -95 -997 0 -5
-452 -8 -1004 -8 l-1005 0 -6 53 c-7 62 -175 1852 -175 1867 0 5 20 -4 44 -20
130 -88 290 -138 467 -147 140 -7 250 7 374 48 109 36 177 76 360 209 179 131
264 173 396 199 75 15 254 12 337 -5z"/>
<path d="M2874 2218 c-12 -5 -27 -21 -33 -34 -16 -35 -15 -478 1 -507 24 -45
31 -46 291 -47 l248 0 24 25 25 24 0 251 0 251 -25 24 -24 25 -243 -1 c-145 0
-252 -5 -264 -11z m396 -288 l0 -140 -140 0 -140 0 0 140 0 140 140 0 140 0 0
-140z"/>
<path d="M2113 1760 c-51 -21 -54 -38 -51 -305 3 -246 3 -247 27 -266 21 -18
42 -19 273 -19 l249 0 24 25 25 24 0 248 c-1 260 -2 267 -47 291 -26 14 -466
16 -500 2z m387 -290 l0 -140 -140 0 -140 0 0 140 0 140 140 0 140 0 0 -140z"/>
<path d="M3459 1697 c-34 -26 -39 -54 -39 -236 0 -176 1 -181 24 -208 l24 -28
196 0 c259 0 240 -19 244 235 l3 190 -30 30 -29 30 -189 0 c-132 -1 -193 -4
-204 -13z m289 -229 l-3 -83 -80 0 -80 0 -3 83 -3 82 86 0 86 0 -3 -82z"/>
<path d="M2726 1459 l-26 -20 0 -259 0 -259 26 -20 c25 -20 39 -21 269 -21
230 0 244 1 269 21 l26 20 0 259 0 259 -26 20 c-25 20 -39 21 -269 21 -230 0
-244 -1 -269 -21z m404 -279 l0 -140 -135 0 -135 0 0 140 0 140 135 0 135 0 0
-140z"/>
<path d="M2145 1015 c-25 -24 -25 -26 -25 -213 0 -176 1 -191 21 -216 l20 -26
200 0 c186 0 200 1 219 20 19 19 20 33 20 219 l0 200 -26 20 c-25 20 -40 21
-216 21 -187 0 -189 0 -213 -25z m295 -215 l0 -80 -80 0 -80 0 0 80 0 80 80 0
80 0 0 -80z"/>
</g>
</svg>
