<?xml version="1.0" standalone="no"?>
<!DOCTYPE svg PUBLIC "-//W3C//DTD SVG 20010904//EN"
 "http://www.w3.org/TR/2001/REC-SVG-20010904/DTD/svg10.dtd">
<svg version="1.0" xmlns="http://www.w3.org/2000/svg"
 width="512.000000pt" height="512.000000pt" viewBox="0 0 512.000000 512.000000"
 preserveAspectRatio="xMidYMid meet">

<g transform="translate(0.000000,512.000000) scale(0.100000,-0.100000)"
fill="#000000" stroke="none">
<path d="M1473 5105 c-157 -43 -275 -152 -335 -311 l-23 -59 0 -1706 c0 -1388
2 -1711 13 -1730 29 -55 22 -54 505 -57 l447 -3 0 -572 c0 -525 1 -575 18
-607 9 -19 28 -40 42 -47 36 -18 804 -18 840 0 14 7 33 28 42 47 17 32 18 82
18 607 l0 572 448 3 c482 3 475 2 504 57 11 19 13 342 13 1730 l0 1706 -23 59
c-61 161 -179 269 -339 311 -83 22 -2090 21 -2170 0z m2158 -207 c51 -22 116
-84 142 -132 l22 -41 3 -1637 2 -1638 -1240 0 -1240 0 2 1638 3 1637 22 41
c22 41 83 103 123 124 12 7 43 16 69 20 25 4 498 7 1051 6 911 -1 1008 -3
1041 -18z m-801 -4178 l0 -520 -270 0 -270 0 0 520 0 520 270 0 270 0 0 -520z"/>
<path d="M1824 4210 c-12 -4 -31 -21 -43 -36 l-21 -27 2 -974 3 -975 28 -24
c41 -35 99 -33 138 5 l29 29 0 972 c0 1071 4 1006 -62 1029 -36 13 -45 13 -74
1z"/>
<path d="M2524 4211 c-12 -5 -31 -22 -43 -37 l-21 -27 0 -969 0 -970 29 -29
c41 -41 101 -41 142 0 l29 29 0 971 0 971 -27 30 c-30 32 -75 45 -109 31z"/>
<path d="M3220 4209 c-14 -5 -33 -20 -42 -32 -16 -20 -18 -88 -18 -995 l0
-974 29 -29 c39 -38 97 -40 138 -5 l28 24 3 976 2 975 -27 31 c-31 33 -75 45
-113 29z"/>
</g>
</svg>
